<?xml version="1.0" encoding="utf-8" ?><svg xmlns="http://www.w3.org/2000/svg" xmlns:xlink="http://www.w3.org/1999/xlink" width="1024" height="526" viewBox="0 0 1024 526"><path fill="white" transform="matrix(0.915103 0 0 0.914783 0 -0.00012207)" d="M0 0L1119 0L1119 575L0 575L0 0Z"/><path fill="#9EC634" transform="matrix(0.915103 0 0 0.914783 0 -0.00012207)" d="M303.318 82.8177C306.256 87.4583 309.374 92.7983 313.89 95.9761C323.951 103.055 337.053 106.693 348.501 111.437C374.295 122.127 387.381 145.368 381.195 173.235C395.667 154.788 416.897 142.879 440.178 140.147C451.729 138.851 464.943 139.876 476.064 143.198C502.769 151.176 526.568 165.826 552.633 145.918C526.016 154.555 512.861 149.71 487.781 137.523C525.026 88.8766 555.911 148.886 589.514 110.871C583.66 145.752 562.925 179.63 522.425 173.994C506.699 171.868 494.47 163.181 480.699 156.283C459.303 145.566 432.934 147.277 413.301 161.071C377.693 186.088 353.274 250.247 380.565 288.735C389.471 301.44 403.074 310.066 418.36 312.704C442.216 316.741 463.751 306.369 482.519 292.931C490.85 286.941 498.791 280.428 506.295 273.429C509.406 276.37 513.543 280.078 516.308 283.208L528.768 295.829C510.033 310.844 495.671 323.923 472.286 332.635C424.586 350.404 373.578 334.291 355.479 284.034C352.439 288.062 346.713 293.374 342.937 297.111C336.388 303.631 329.801 310.112 323.176 316.554C307.984 317.084 289.712 316.542 274.36 316.353C277.366 311.335 293.282 296.777 298.523 291.713L322.921 267.705C332.002 258.892 343.245 248.226 351.648 238.82C352.849 235.905 354.122 226.133 355.433 222.164C360.791 205.943 371.421 190.43 368.689 172.845C366.202 156.832 359.132 145.584 346.316 135.901L343.923 135.974C343.091 137.432 343.536 138.161 343.74 140.148C354.027 151.848 359.752 165.11 358.685 180.908C358.607 182.04 358.477 183.168 358.294 184.287C312.215 175.242 291.377 139.999 300.289 94.1612C301.007 90.4654 301.963 86.3284 303.318 82.8177Z"/><path fill="#15643A" transform="matrix(0.915103 0 0 0.914783 0 -0.00012207)" d="M351.648 238.82L351.685 239.353C352.034 244.875 351.141 250.905 351.541 256.633C353.005 277.586 358.933 292.949 374.583 307.076C391.892 322.701 410.342 328.946 433.486 327.709C457.556 326.423 483.162 311.532 501.787 296.845C505.151 294.193 511.245 289.22 513.92 286.219C514.767 285.257 515.564 284.252 516.308 283.208L528.768 295.829C510.033 310.844 495.671 323.923 472.286 332.635C424.586 350.404 373.578 334.291 355.479 284.034C352.439 288.062 346.713 293.374 342.937 297.111C336.388 303.631 329.801 310.112 323.176 316.554C307.984 317.084 289.712 316.542 274.36 316.353C277.366 311.335 293.282 296.777 298.523 291.713L322.921 267.705C332.002 258.892 343.245 248.226 351.648 238.82Z"/><path fill="#F1FEB4" transform="matrix(0.915103 0 0 0.914783 0 -0.00012207)" d="M328.96 126.903C336.514 129.257 340.003 131.075 346.316 135.901L343.923 135.974C343.091 137.432 343.536 138.161 343.74 140.148C339.73 135.716 333.622 130.825 328.96 126.903Z"/><path fill="#15643A" transform="matrix(0.915103 0 0 0.914783 0 -0.00012207)" d="M386.981 211.086C393.908 195.424 413.578 170.979 429.678 164.694C438.862 161.178 449.054 161.379 458.092 165.255C470.386 170.663 481.79 184.752 491.471 194.48C504.82 207.727 518.022 221.121 531.074 234.661C574.494 280.35 603.689 324.478 673.572 315.451C677.002 315.848 679.158 314.645 682.509 314.63C680.809 315.391 678.914 315.862 678.125 317.249C682.093 315.664 682.622 314.737 686.523 316.878C650.237 338.434 609.847 343.277 572.346 320.51C554.708 309.801 532.318 286.646 517.178 271.204C499.034 252.996 480.784 234.894 462.428 216.9C457.578 212.218 448.565 201.16 442.675 200.431C438.638 201.921 394.622 244.394 389.94 250.553C386.612 269.709 393.628 284.976 407.06 298.359L405.928 299.754C378.812 286.745 374.04 252.843 381.558 226.541C382.795 221.032 384.655 216.199 386.981 211.086Z"/><path fill="#43803D" transform="matrix(0.915103 0 0 0.914783 0 -0.00012207)" d="M386.981 211.086C393.908 195.424 413.578 170.979 429.678 164.694C438.862 161.178 449.054 161.379 458.092 165.255C470.386 170.663 481.79 184.752 491.471 194.48C504.82 207.727 518.022 221.121 531.074 234.661C574.494 280.35 603.689 324.478 673.572 315.451C677.002 315.848 679.158 314.645 682.509 314.63C680.809 315.391 678.914 315.862 678.125 317.249C665.757 323.057 645.859 326.419 632.292 325.7C591.416 323.535 566.283 297.601 540.789 269.37L508.451 233.332C495.242 218.862 481.241 204.694 466.037 192.337C435.347 167.392 412.903 198.352 392.508 217.437C391.669 215.917 391.788 213.195 391.209 210.991C389.556 210.06 389.411 210.559 386.981 211.086Z"/><path fill="#28643B" transform="matrix(0.915103 0 0 0.914783 0 -0.00012207)" d="M386.981 211.086C389.411 210.559 389.556 210.06 391.209 210.991C391.788 213.195 391.669 215.917 392.508 217.437C390.164 219.98 384.739 225.556 381.558 226.541C382.795 221.032 384.655 216.199 386.981 211.086Z"/><path fill="#9EC634" transform="matrix(0.915103 0 0 0.914783 0 -0.00012207)" d="M792.731 120.13C794.954 122.482 796.325 125.003 797.793 127.781C817.294 164.677 821.699 212.123 780.302 235.577C776.421 237.777 766.901 240.807 764.144 243.359C758.336 248.733 754.557 256.425 748.458 262.471C762.176 277.963 778.107 291.466 792.591 306.251C795.743 309.469 799.288 312.598 801.946 316.233C788.187 315.617 767.925 316.397 753.573 316.4C748.125 313.101 727.53 291.945 721.84 286.281C689.975 307.959 659.091 315.616 622.186 302.594C619.404 301.564 616.67 300.118 614.007 298.791C646.713 306.392 677.899 299.051 706.315 281.997C744.776 258.577 772.526 221.008 783.611 177.353C780.866 182.594 777.709 190.603 774.849 195.475C768.286 206.657 753.473 228.478 743.841 236.237C736.661 223.753 736.138 205.557 740.666 192.058C751.107 160.931 786.559 153.831 792.731 120.13Z"/><path fill="#15643A" transform="matrix(0.915103 0 0 0.914783 0 -0.00012207)" d="M659.242 358.234C672.884 357.592 692.533 357.416 702.921 368.227C712.336 378.025 709.703 395.761 698.424 403.068C695.693 404.837 693.579 405.609 690.523 406.745C692.143 407.163 693.76 407.58 695.352 408.088C716.852 414.952 719.113 443.641 703.16 457.131C688.428 466.996 664.745 465.387 647.851 463.717C636.364 462.582 639.357 443.741 639.368 435.07L639.551 397.754C639.642 385.086 640.308 374.302 637.864 361.787C645.761 359.358 651.004 358.816 659.242 358.234Z"/><path fill="white" transform="matrix(0.915103 0 0 0.914783 0 -0.00012207)" d="M660.612 412.777C667.84 412.448 677.256 411.335 683.172 416.084C692.895 423.891 692.363 441.395 685.056 450.538C677.498 456.875 669.719 455.887 660.514 455.571L660.612 412.777Z"/><path fill="white" transform="matrix(0.915103 0 0 0.914783 0 -0.00012207)" d="M660.619 366.877C667.287 366.588 674.214 365.97 679.913 370.182C689.345 377.152 687.325 391.298 680.926 399.547C674.705 404.863 668.614 404.072 660.621 404.343L660.619 366.877Z"/><path fill="#28643B" transform="matrix(0.915103 0 0 0.914783 0 -0.00012207)" d="M694.67 423.976L695.236 424.488C696.255 427.923 695.431 443.149 695.252 447.377C693.298 444.218 694.42 428.326 694.67 423.976Z"/><path fill="#28643B" transform="matrix(0.915103 0 0 0.914783 0 -0.00012207)" d="M683.482 455.999C685.889 455.548 694.001 456.405 696.797 456.734C692.663 457.786 687.532 457.247 683.482 455.999Z"/><path fill="#15643A" transform="matrix(0.915103 0 0 0.914783 0 -0.00012207)" d="M589.731 362.35C591.638 359.764 594.203 358.592 597.374 358.296C602.505 357.817 613.947 356.842 614.511 364.112C615 370.419 614.852 376.855 614.968 383.142L616.054 421.952C616.47 436.602 615.548 447.838 619.519 462.064C614.664 465.023 609.246 467.154 603.45 465.797C601.101 465.247 598.546 463.8 597.326 461.648C592.943 453.917 595.682 398.942 595.697 386.475C593.247 390.958 590.711 397.997 588.81 402.876C584.923 412.805 581.133 422.771 577.44 432.773C575.564 437.765 573.621 444.743 570.536 449.06C569.63 450.329 568.194 450.964 566.733 451.383C562.974 452.459 555.147 452.722 551.723 450.69C546.708 447.712 526.653 396.358 521.387 386.55C521.349 407.819 522.427 430.472 523.521 451.747C523.654 454.345 524.578 461.239 523.774 463.172C521.532 465.347 517.935 465.886 514.916 465.824C513.031 465.785 511.393 465.343 510.106 463.846C505.579 458.581 512.139 378.142 507.013 360.861C513.612 357.828 521.916 357.096 528.914 359.192C533.412 360.539 535.251 365.435 537.191 369.255C546.053 389.785 555.025 410.301 563.587 430.961L579.667 388.532C582.261 381.57 585.843 370.635 588.772 364.332L589.731 362.35Z"/><path fill="#28643B" transform="matrix(0.915103 0 0 0.914783 0 -0.00012207)" d="M589.731 362.35C592.298 364.688 592.633 372.507 591.128 375.175L590.624 374.971C590.527 371.035 591.235 367.007 588.772 364.332L589.731 362.35Z"/><path fill="#43803D" transform="matrix(0.915103 0 0 0.914783 0 -0.00012207)" d="M544.528 236.097C550.009 229.345 557.99 221.913 564.346 215.867C578.319 202.575 592.958 185.851 607.991 174.057C612.756 170.258 617.98 167.072 623.539 164.575C659.972 148.168 690.126 176.15 704.34 208.064C698.043 201.583 694.34 198.284 686.818 193.202C674.201 186.735 665.705 182.095 651.078 186.762C637.737 191.019 629.348 200.883 619.721 210.434L587.636 242.318C582.417 247.553 573.79 256.814 568.22 261.259C564.536 257.837 559.621 252.242 556.28 248.283L544.528 236.097Z"/><path fill="#15643A" transform="matrix(0.915103 0 0 0.914783 0 -0.00012207)" d="M556.28 248.283C557.002 246.847 571.1 233.426 573.341 231.252C600.186 205.213 635.31 152.923 677.905 180.937C685.397 185.864 687.676 187.374 692.025 194.889C689.849 193.926 689.156 193.573 686.818 193.202C674.201 186.735 665.705 182.095 651.078 186.762C637.737 191.019 629.348 200.883 619.721 210.434L587.636 242.318C582.417 247.553 573.79 256.814 568.22 261.259C564.536 257.837 559.621 252.242 556.28 248.283Z"/><path fill="#15643A" transform="matrix(0.915103 0 0 0.914783 0 -0.00012207)" d="M448.864 357.672C459.708 356.866 472.68 358.266 481.546 365.249C485.591 368.436 489.811 375.978 485.399 380.649C481.237 385.054 475.547 385.573 469.828 385.882C467.393 375.069 464.069 365.988 450.754 366.41C429.758 367.075 427.372 398.116 427.879 413.482C428.383 428.765 431.767 457.524 452.712 456.462C462.419 456.148 468.68 448.597 469.97 439.348C471.583 427.788 470.666 418.014 461.477 409.837L461.433 408.672C475.075 398.097 490.302 405.35 491.917 422.531C494.185 445.462 481.385 463.377 457.84 465.77C426.367 468.97 407.398 451.034 404.971 420.004C402.42 387.384 413.457 361.069 448.864 357.672Z"/><path fill="#9EC634" transform="matrix(0.915103 0 0 0.914783 0 -0.00012207)" d="M658.059 193.567C672.757 192.03 684.487 200.783 694.673 210.197C708.067 222.575 720.863 235.49 733.273 248.85C729.027 254.093 718.346 262.933 712.938 267.35C711.282 268.507 709.022 269.845 707.271 270.954C699.015 265.064 680.601 245.61 672.58 237.776C665.95 231.302 643.631 209.664 639.134 203.069C644.389 197.659 650.917 195.203 658.059 193.567Z"/><path fill="#9EC634" transform="matrix(0.915103 0 0 0.914783 0 -0.00012207)" d="M763.934 254.553C770.712 248.834 775.599 244.477 784.644 242.423C800.155 238.9 814.685 247.496 824.412 259.147C828.718 264.272 832.455 269.849 835.559 275.781C831.908 275.096 827.661 274.347 823.961 274.724C799.708 277.192 782.748 288.823 764.286 264.417C763.583 263.487 762.974 262.209 762.464 261.116C766.625 260.364 769.43 259.936 773.636 259.613C776.397 258.897 788.212 258.407 789.038 257.98C786.177 257.261 781.939 256.751 779.621 255.195C774.292 254.684 769.271 254.643 763.934 254.553Z"/><path fill="#F1FEB4" transform="matrix(0.915103 0 0 0.914783 0 -0.00012207)" d="M779.621 255.195C787.454 255.471 794.352 257.653 801.466 260.792C791.212 259.781 783.976 259.565 773.636 259.613C776.397 258.897 788.212 258.407 789.038 257.98C786.177 257.261 781.939 256.751 779.621 255.195Z"/><path fill="#9EC634" transform="matrix(0.915103 0 0 0.914783 0 -0.00012207)" d="M439.619 91.6617L439.7 92.0893C441.632 102.808 438.183 117.866 431.612 126.859C423.65 137.756 414.584 140.566 401.702 142.963C400.21 143.24 398.936 143.194 397.699 142.279C393.847 134.347 411.684 118.547 417.535 114.313C412.968 115.817 410.821 116.983 406.825 119.391C395.133 126.937 392.2 135.379 388.928 148.087C384.963 125.131 386.533 109.489 413.361 102.913C424.755 100.12 431.076 100.576 439.619 91.6617Z"/><path fill="#9EC634" transform="matrix(0.915103 0 0 0.914783 0 -0.00012207)" d="M623.229 144.983C631.896 144.041 639.641 145.826 647.772 148.543C637.042 148.475 623.682 150.656 614.183 155.854C582.686 173.087 559.513 225.893 516.682 202.681C507.9 197.263 503.743 193.292 498.047 184.875C499.285 185.907 500.563 186.891 501.877 187.826C510.132 193.76 518.344 197.491 528.602 198.22C556.458 200.197 571.335 171.568 591.86 157.568C602.364 150.404 610.736 147.029 623.229 144.983Z"/><path fill="#9EC634" transform="matrix(0.915103 0 0 0.914783 0 -0.00012207)" d="M706.007 143.982C718.55 149.737 728.462 157.394 733.595 170.633C738.366 182.94 734.141 196.762 724.719 205.768L723.913 205.948C722.658 202.081 724.333 202.468 720.061 201.09C719.703 203.508 719.352 206.415 718.787 208.754C711.508 205.208 708.408 201.369 705.443 193.746C698.807 176.688 711.317 160.058 706.007 143.982Z"/><path fill="#F1FEB4" transform="matrix(0.915103 0 0 0.914783 0 -0.00012207)" d="M717.95 172.546C723.742 183.904 724.178 193.332 723.913 205.948C722.658 202.081 724.333 202.468 720.061 201.09C720.715 188.629 720.417 185.053 717.95 172.546Z"/><path fill="#15643A" transform="matrix(0.915103 0 0 0.914783 0 -0.00012207)" d="M611.34 268.084C613.932 265.901 627.011 265.966 629.93 267.36C630.48 268.255 630.605 268.3 630.664 269.371C630.676 274.994 630.701 280.426 630.441 286.053C625.854 286.187 615.814 287.367 612.816 284.941C610.604 281.849 611.371 272.398 611.34 268.084Z"/><path fill="#28643B" transform="matrix(0.915103 0 0 0.914783 0 -0.00012207)" d="M611.34 268.084C613.932 265.901 627.011 265.966 629.93 267.36C630.48 268.255 630.605 268.3 630.664 269.371C627.164 267.977 618.193 271.136 611.34 268.084Z"/><path fill="#15643A" transform="matrix(0.915103 0 0 0.914783 0 -0.00012207)" d="M637.351 241.67C643.562 241.596 649.773 241.656 655.982 241.853C656.266 247.454 656.489 255.116 655.868 260.638C649.7 260.953 643.424 260.89 637.241 260.899C636.891 255.587 636.887 246.944 637.351 241.67Z"/><path fill="#15643A" transform="matrix(0.915103 0 0 0.914783 0 -0.00012207)" d="M637.389 267.249C640.773 266.294 652.036 265.988 655.327 267.784C656.012 268.8 656.14 268.877 656.22 270.056C656.247 275.443 656.244 280.407 656 285.806C636.983 287.131 634.87 287.662 637.389 267.249Z"/><path fill="#28643B" transform="matrix(0.915103 0 0 0.914783 0 -0.00012207)" d="M637.389 267.249C640.773 266.294 652.036 265.988 655.327 267.784C656.012 268.8 656.14 268.877 656.22 270.056C650.771 268.269 641.007 271.746 637.389 267.249Z"/><path fill="#15643A" transform="matrix(0.915103 0 0 0.914783 0 -0.00012207)" d="M612.387 241.783C617.142 241.785 627.841 239.685 629.823 243.774C630.902 246 631.16 258.926 629.848 260.733C623.78 260.792 617.711 260.787 611.643 260.718C611.381 257.15 610.785 244.217 612.387 241.783Z"/><path fill="#15643A" transform="matrix(0.915103 0 0 0.914783 0 -0.00012207)" d="M422.373 266.808C428.541 266.712 434.4 266.599 440.573 266.853C440.882 271.043 440.647 281.795 440.262 285.911C435.566 285.915 429.84 286.432 425.43 286.044C419.883 285.557 421.254 270.221 422.373 266.808Z"/><path fill="#15643A" transform="matrix(0.915103 0 0 0.914783 0 -0.00012207)" d="M422.045 241.582L440.319 241.617C440.587 246.786 441.18 255.658 440.407 260.581C434.779 261.057 427.604 260.794 421.844 260.733C421.647 255.226 421.308 246.851 422.045 241.582Z"/><path fill="#15643A" transform="matrix(0.915103 0 0 0.914783 0 -0.00012207)" d="M447.557 241.613L465.997 241.697C466.38 246.928 466.513 255.522 466.118 260.661C461.187 261.076 452.482 260.881 447.575 260.765C447.099 254.708 447.368 247.728 447.557 241.613Z"/><path fill="#15643A" transform="matrix(0.915103 0 0 0.914783 0 -0.00012207)" d="M448.419 266.979C451.374 266.871 464.982 265.613 466.278 268.506C466.612 273.449 466.492 281.071 466.006 285.931C459.919 285.96 453.832 285.939 447.746 285.866C447.521 282.348 446.782 269.368 448.419 266.979Z"/><path fill="#28643B" transform="matrix(0.915103 0 0 0.914783 0 -0.00012207)" d="M448.419 266.979C451.374 266.871 464.982 265.613 466.278 268.506C461.215 269.865 452.399 271.032 448.419 266.979Z"/><path fill="#54705E" transform="matrix(0.915103 0 0 0.914783 0 -0.00012207)" d="M701.117 306.958C696.313 310.401 691.675 314.015 686.523 316.878C682.622 314.737 682.093 315.664 678.125 317.249C678.914 315.862 680.809 315.391 682.509 314.63C679.158 314.645 677.002 315.848 673.572 315.451C684.43 312.76 690.808 310.471 701.117 306.958Z"/><path fill="#767878" transform="matrix(0.915103 0 0 0.914783 0 -0.00012207)" d="M407.06 298.359C409.614 300.15 415.471 303.232 416.793 304.331C413.333 302.801 409.09 301.346 405.928 299.754L407.06 298.359Z"/></svg>