<?xml version="1.0" encoding="utf-8" ?><svg xmlns="http://www.w3.org/2000/svg" xmlns:xlink="http://www.w3.org/1999/xlink" width="1024" height="494" viewBox="0 0 1024 494"><path fill="white" transform="scale(0.982726 0.982107)" d="M0 0L1042 0L1042 503L0 503L0 0Z"/><path fill="#9FC632" transform="scale(0.982726 0.982107)" d="M280.552 63.5763C284.11 68.6089 288.418 74.6952 293.742 78.0179C303.479 84.0943 314.993 87.3817 325.72 91.7702C351.484 102.31 364.751 122.741 361.337 150.67C361.138 152.296 360.613 154.21 360.21 155.836C385.365 125.941 421.079 113.729 458.734 125.136C485.579 133.267 509.636 147.425 535.78 127.436C507.073 136.207 495.741 131.556 469.273 118.816C474.015 112.893 478.108 107.777 484.818 103.89C518.063 84.6317 544.049 125.535 573.136 92.2264C570.065 121.386 551.755 151.652 520.729 156.545C489.057 161.54 470.46 135.853 440.807 131.493C371.924 121.365 321.928 226.908 362.979 277.488C372.781 289.621 387.06 297.295 402.591 298.777C436.254 302.148 464.842 279.132 488.082 257.741C491.87 261.005 494.801 264.121 498.236 267.718L511.834 281.139C503.635 287.298 496.666 293.74 488.012 299.819C461.246 318.62 433.58 328.966 400.403 324.429C386.613 322.543 368.677 315.5 358.826 305.821C348.503 299.025 339.179 280.28 334.268 269.186L335.625 267.644C335.581 265.553 331.486 251.922 330.782 248.087C329.749 242.46 331.175 225.347 330.082 222.796C332.087 215.739 333.061 207.611 335.717 200.893C345.479 176.198 355.235 161.622 341.049 135.676C333.453 121.783 322.923 114.592 308.12 108.549C323.58 121.525 335.662 134.216 337.471 155.483C337.814 159.236 337.818 163.013 337.485 166.768C285.262 158.589 264.353 111.387 280.552 63.5763Z"/><path fill="#17623A" transform="scale(0.982726 0.982107)" d="M498.236 267.718L511.834 281.139C503.635 287.298 496.666 293.74 488.012 299.819C461.246 318.62 433.58 328.966 400.403 324.429C386.613 322.543 368.677 315.5 358.826 305.821C360.078 306.335 361.032 306.824 362.38 306.949C364.298 306.037 363.976 306.497 365.117 304.9C365.199 302.351 365.475 303.296 363.966 301.179C407.315 326.943 451.157 309.598 486.721 279.716C491.089 276.046 495.747 273 498.236 267.718Z"/><path fill="#1C5C32" transform="scale(0.982726 0.982107)" d="M334.268 269.186L335.625 267.644C341.549 279.375 348.235 289.012 358.769 297.024C359.478 297.564 363.519 300.628 363.966 301.179C365.475 303.296 365.199 302.351 365.117 304.9C363.976 306.497 364.298 306.037 362.38 306.949C361.032 306.824 360.078 306.335 358.826 305.821C348.503 299.025 339.179 280.28 334.268 269.186Z"/><defs><linearGradient id="gradient_0" gradientUnits="userSpaceOnUse" x1="367.05768" y1="280.01248" x2="661.28271" y2="209.51486"><stop offset="0" stop-color="#115F3E"/><stop offset="1" stop-color="#397F3D"/></linearGradient></defs><path fill="url(#gradient_0)" transform="scale(0.982726 0.982107)" d="M409.555 147.008C419.81 143.154 428.666 142.736 439.044 147.195C448.566 151.722 458.497 161.418 465.677 169.244C484.373 189.623 506.209 208.955 524.378 229.576C549.49 256.827 574.66 285.655 610.086 298.651C614.968 299.406 620.947 301.598 626.658 302.359C648.903 305.324 667.376 300 687.688 292.373C682.565 295.819 677.413 299.966 672.166 303.007C644.695 318.931 614.952 326.221 583.705 317.901C549.604 308.82 528.821 284.399 504.874 260.998L450.581 207.508C446.478 203.439 427.932 182.605 423.553 183.246C415.499 187.002 399.225 205.949 391.303 213.013C386.584 217.22 371.836 231.054 369.061 235.457C367.957 255.302 373.178 273.902 390.354 285.667L389.601 286.685C379.644 282.32 371.529 275.655 366.083 266.317C354.287 246.089 355.703 230.224 361.036 208.778C362.183 204.693 363.591 200.685 365.249 196.779C372.468 179.723 392.012 154.133 409.555 147.008Z"/><path fill="#43803D" transform="scale(0.982726 0.982107)" d="M409.555 147.008C419.81 143.154 428.666 142.736 439.044 147.195C448.566 151.722 458.497 161.418 465.677 169.244C484.373 189.623 506.209 208.955 524.378 229.576C549.49 256.827 574.66 285.655 610.086 298.651C606.782 299.441 598.262 295.172 594.926 293.421C580.32 285.752 567.472 275.454 555.988 263.672C554.866 262.521 548.439 256.534 547.191 256.342C544.278 255.896 541.578 257.47 539.159 253.835C538.593 252.17 539.224 250.164 539.598 248.394C535.438 241.974 528.769 236.826 524.335 231.025C522.641 232.319 513.399 239.086 512.706 239.949C514.498 243.424 525.713 255.12 528.766 258.404C548.799 279.954 571.57 302.955 601.81 308.412C597.838 308.739 592.617 306.711 588.89 305.359C577.402 301.063 566.694 294.919 557.191 287.169C544.246 276.792 528.441 259.146 517.193 246.651C505.122 232.95 493.306 219.402 480.525 206.293C467.577 193.012 443.315 164.623 423.129 165.416C403.29 166.195 383.461 190.019 370.461 202.903C367.9 205.442 365.496 208.672 361.404 208.772L361.036 208.778C362.183 204.693 363.591 200.685 365.249 196.779C372.468 179.723 392.012 154.133 409.555 147.008Z"/><path fill="#9FC632" transform="scale(0.982726 0.982107)" d="M781.534 100.766C804.108 135.269 813.816 190.66 773.09 216.096C766.223 220.385 758.816 223.368 751.399 226.541C745.173 235.777 741.899 238.757 735.631 246.67C744.608 256.65 753.989 265.433 763.59 274.754L790.912 301.69C775.079 301.844 756.206 302.437 740.644 301.711C735.603 298.578 714.522 276.85 708.736 270.997C677.221 294.124 634.575 303.433 598.886 284.092C606.144 285.582 613.585 287.08 620.987 287.198C646.983 287.61 674.32 279.451 695.774 264.95C726.409 244.243 752.366 214.569 766.047 180.159C765.844 175.713 768.306 172.706 768.098 170.256L766.651 170.917C759.154 187.438 744.307 207.695 731.09 220.036C724.153 207.416 723.7 190.493 727.444 176.661C736.21 144.267 776.917 134.035 781.534 100.766Z"/><path fill="#EBFDA5" transform="scale(0.982726 0.982107)" d="M766.651 170.917L772.367 159.299C770.976 164.794 768.446 175.175 766.047 180.159C765.844 175.713 768.306 172.706 768.098 170.256L766.651 170.917Z"/><path fill="#17623A" transform="scale(0.982726 0.982107)" d="M527.417 219.359C532.614 213.817 538.641 208.023 544.181 202.91C565.433 183.289 582.337 160.336 608.167 146.499C640.33 129.268 675.882 157.111 688.028 184.772C688.893 186.818 689.718 188.739 690.452 190.843C673.392 171.093 645.633 158.008 622.731 176.688C602.157 193.469 584.949 213.861 565.58 232.003C560.983 236.301 556.923 241.24 552.161 245.358C547.787 241.225 544.203 237.309 540.136 232.878C535.729 228.062 531.613 224.781 527.417 219.359Z"/><path fill="#43803D" transform="scale(0.982726 0.982107)" d="M527.417 219.359C532.614 213.817 538.641 208.023 544.181 202.91C565.433 183.289 582.337 160.336 608.167 146.499C640.33 129.268 675.882 157.111 688.028 184.772C683.222 181.366 678.482 169.129 671.889 163.704L670.918 164.486L670.924 164.461L669.969 165.201C670.587 169.655 681.714 173.159 679.299 177.029L678.311 177.306C677.296 175.727 677.569 174.856 677.273 173.834C676.318 172.451 673.941 170.763 672.832 169.813C665.441 163.482 655.486 157.921 645.903 155.966C622.759 151.246 603.621 167.462 588.431 182.54C577.365 193.524 566.321 203.635 556.131 215.47C550.96 221.238 545.033 226.832 540.136 232.878C535.729 228.062 531.613 224.781 527.417 219.359Z"/><path fill="#9FC632" transform="scale(0.982726 0.982107)" d="M642.268 176.572C644.75 176.336 647.249 176.304 649.737 176.479C671.755 178.208 690.483 203.995 706.157 217.919C710.257 221.562 717.184 228.285 720.715 232.449C716.161 238.664 705.618 246.962 699.326 251.839L693.963 255.933C687.608 251.473 625.806 189.469 624.963 187.143C625.752 181.617 637.443 177.718 642.268 176.572Z"/><path fill="#17623A" transform="scale(0.982726 0.982107)" d="M330.082 222.796C331.175 225.347 329.749 242.46 330.782 248.087C331.486 251.922 335.581 265.553 335.625 267.644L334.268 269.186C329.467 274.55 321.767 281.438 316.567 286.741C313.048 290.33 304.601 298.997 301.07 301.683C285.21 301.925 266.403 302.495 250.67 301.675C268.384 283.649 287.053 266.204 304.804 248.186C312.727 240.143 322.871 231.226 330.082 222.796Z"/><path fill="#9FC632" transform="scale(0.982726 0.982107)" d="M769.338 226.95C777.255 225.164 782.999 224.502 790.948 227.032C805.539 232.544 817.792 246.352 824.398 260.153C801.965 256.032 788.679 269.021 768.573 262.473C761.239 260.084 753.587 252.305 750.388 245.079C762.077 242.524 776.706 243.432 788.537 244.646C774.241 238.445 765.824 238.116 751.018 239.098C756.139 232.852 762.094 229.985 769.338 226.95Z"/><path fill="#A5C050" transform="scale(0.982726 0.982107)" d="M769.338 226.95C777.255 225.164 782.999 224.502 790.948 227.032C790.402 227.346 789.161 228.085 788.607 228.122C782.924 228.496 777.029 228.934 771.357 228.346C771.354 228.345 769.515 227.073 769.338 226.95Z"/><path fill="#17623A" transform="scale(0.982726 0.982107)" d="M694.973 344.933C714.082 342.842 721.109 357.471 719.937 374.006C719.091 385.954 715.177 393.968 702.684 396.598C690.743 397.401 682.34 394.291 678.819 381.501C676.49 373.041 677.089 361.795 681.456 354.032C684.624 348.399 689.026 346.477 694.973 344.933Z"/><path fill="white" transform="scale(0.982726 0.982107)" d="M696.555 348.911C700.707 348.773 704.016 349.599 705.853 353.8C709.927 363.121 711.378 386.843 701.259 392.567C685.517 393.315 688.656 371.954 689.032 361.623C689.231 356.135 691.828 351.654 696.555 348.911Z"/><path fill="#17623A" transform="scale(0.982726 0.982107)" d="M364.862 344.929C390.34 343.301 393.616 369.234 385.529 387.844C383.395 392.756 377.374 395.4 372.358 396.668C346.514 398.897 342.412 372.273 351.226 353.523C353.617 348.437 359.597 346.089 364.862 344.929Z"/><path fill="white" transform="scale(0.982726 0.982107)" d="M366.339 348.918C377.664 348.575 378.272 361.292 378.281 369.763C378.29 378.119 378.941 389.202 369.794 392.631C362.34 392.891 359.384 386.868 358.709 380.265C357.739 370.765 356.107 353.815 366.339 348.918Z"/><path fill="#9FC632" transform="scale(0.982726 0.982107)" d="M419.513 72.1021C421.591 79.6407 419.209 93.3822 416.232 100.481C412.407 109.606 406.078 116.754 396.792 120.416C392.846 121.972 381.185 125.733 377.307 124.134C375.225 120.263 378.645 115.846 380.595 112.371C384.659 105.13 390.973 100.179 397.393 95.171C393.282 96.6935 390.847 97.6764 387.058 99.8463C375.482 108.063 371.88 115.862 368.247 129.151C364.708 107.479 365.752 91.334 390.594 84.1738C402.049 80.8723 411.006 81.7234 419.513 72.1021Z"/><path fill="#17623A" transform="scale(0.982726 0.982107)" d="M613.503 345.059C620.893 345.166 629.198 345.85 632.813 353.537C636.066 360.452 631.354 366.024 625.074 368.75C629.059 370.022 631.38 370.927 633.784 374.561C635.779 377.599 636.444 381.32 635.623 384.86C634.631 389.247 632.2 391.497 628.606 393.791C622.34 396.435 608.834 397.185 602.371 394.801C599.05 393.104 600.424 385.236 600.297 382.128C599.836 370.897 601.711 357.745 599.118 346.87C604.372 345.099 608.07 345.246 613.503 345.059Z"/><path fill="white" transform="scale(0.982726 0.982107)" d="M610.168 371.171C614.324 371.069 617.406 370.707 621.009 373.063C623.188 374.459 624.698 376.69 625.183 379.231C625.79 382.545 624.618 386.626 622.744 389.441C618.299 392.162 615.686 391.672 610.498 391.643L610.168 371.171Z"/><path fill="white" transform="scale(0.982726 0.982107)" d="M610.53 349.317C621.563 349.084 626.708 354.855 620.749 365.119C616.688 367.412 614.964 367.221 610.404 367.234L610.53 349.317Z"/><path fill="#9FC632" transform="scale(0.982726 0.982107)" d="M608.395 126.833C618.894 126.009 623.793 126.903 633.775 130.525C611.203 130.277 597.209 135.428 580.568 151.159C557.607 172.863 534.79 204.547 499.332 185.759C490.581 180.566 485.329 175.681 480.007 167.036C490.917 175.53 499.416 180.958 514.025 181.095C542.19 181.358 557.744 150.161 579.839 136.912C590.018 130.807 596.476 128.262 608.395 126.833Z"/><path fill="#17623A" transform="scale(0.982726 0.982107)" d="M426.36 362.9L421.049 383.54C420.167 387.061 419.3 390.585 418.302 394.138C417.222 397.982 410.599 396.696 407.816 395.93C406.221 395.49 405.375 391.72 404.956 390.137C401.186 375.906 397.378 361.683 393.133 347.583C393.133 347.583 393.489 346.698 393.524 346.612C404.664 339.549 405.376 352.759 406.952 359.78L413.222 387.471C415.247 375.289 419.4 362.298 421.627 349.612C424.766 349.353 428.016 348.759 430.763 350.317C432.656 352.571 440.24 383.403 441.16 388.398C443.431 375.696 446.334 363.105 448.489 350.461C448.657 348.555 448.301 347.451 449.762 346.107C452.825 343.291 460.785 345.365 458.499 350.33L458.521 350.9C455.184 363.544 451.258 376.124 447.894 388.77C447.209 391.346 446.368 393.877 445.449 396.38C442.364 396.581 438.456 397.205 435.826 395.67C433.148 392.453 427.827 368.742 426.36 362.9Z"/><path fill="#1C5C32" transform="scale(0.982726 0.982107)" d="M448.489 350.461C448.657 348.555 448.301 347.451 449.762 346.107C452.825 343.291 460.785 345.365 458.499 350.33L458.521 350.9C455.923 350.945 453.523 350.886 450.933 350.807L448.489 350.461Z"/><path fill="#0B4F2B" transform="scale(0.982726 0.982107)" d="M450.933 350.807L451.256 349.685C453.26 348.247 456.948 348.536 458.499 350.33L458.521 350.9C455.923 350.945 453.523 350.886 450.933 350.807Z"/><path fill="#17623A" transform="scale(0.982726 0.982107)" d="M486.549 358.939C486.754 370.122 486.967 381.223 487.592 392.382C487.719 394.644 486.455 397.053 484.017 397.344C482.537 396.575 481.785 395.444 481.286 393.884C480.562 391.625 480.371 350.243 480.931 346.707C483.32 344.498 490.856 344.588 492.038 347.06C496.843 357.104 502.671 369.375 506.293 379.844C508.152 375.074 517.972 347.711 519.947 345.928C522.31 345.024 529.503 344.47 530.481 347.831C531.222 350.38 530.748 353.969 531.029 356.607C532.091 366.578 530.16 382.285 532.525 391.801C533.523 398.146 522.366 399.617 521.74 390.603C522.277 381.043 521.434 369.089 521.592 359.103C518.459 366.027 512.095 385.069 508.931 389.857C505.665 389.921 504.052 389.972 500.799 389.484C495.644 382.015 491.018 367.466 486.549 358.939Z"/><path fill="#1C5C32" transform="scale(0.982726 0.982107)" d="M521.74 390.603C525.714 391.221 528.516 391.555 532.525 391.801C533.523 398.146 522.366 399.617 521.74 390.603Z"/><path fill="#9FC632" transform="scale(0.982726 0.982107)" d="M692.485 125.319C697.353 127.178 703.485 131.546 707.557 134.829C725.762 149.503 728.211 173.096 710.97 189.782C711.395 181.575 710.707 173.348 708.923 165.326C707.948 162.229 707.546 161.106 706.055 158.202C707.305 169.904 707.857 179.724 705.259 191.394C704.651 191.097 704.05 190.789 703.455 190.468C699.216 188.168 696.049 184.485 693.777 180.284C683.19 160.708 698.281 144.877 692.485 125.319Z"/><path fill="#17623A" transform="scale(0.982726 0.982107)" d="M312.857 345.039C321.101 344.238 334.112 345.118 337.996 353.683C341.817 362.109 336.88 368.401 329.403 371.773C335.377 378.057 334.973 381.436 339.39 388.433C340.365 389.976 341.709 388.757 343.486 390.483C344.173 398.852 332.512 399.191 328.111 389.573C326.724 385.659 322.643 371.176 316.512 373.864C313.336 377.411 315.558 389.26 315.387 394.702C310.671 400.007 305.124 396.561 304.915 390.627C304.387 375.65 305.547 362.117 303.836 347.144C305.472 345.223 310.272 345.248 312.857 345.039Z"/><path fill="white" transform="scale(0.982726 0.982107)" d="M315.051 349.06C318.759 348.847 321.88 348.844 324.895 351.181C326.852 352.672 328.116 354.895 328.396 357.338C328.831 360.94 327.377 364.676 325.223 367.522C320.93 370.383 319.965 370.3 314.946 370.332C314.908 363.241 314.943 356.15 315.051 349.06Z"/><path fill="#17623A" transform="scale(0.982726 0.982107)" d="M772.697 352.33C772.351 349.834 771.339 348.384 771.957 346.375C774.637 343.651 781.145 344.354 782.904 348.613C782.818 355.686 782.797 362.761 782.841 369.835C789.092 366.382 793.893 363.258 796.293 356.032L796.395 355.73C797.444 352.536 795.927 348.489 796.834 345.965C811.83 339.655 808.774 361.697 793.782 369.49C803.613 376.384 801.274 379.626 807.49 388.635C807.894 389.221 810.238 389.714 811.1 389.878C813.082 393.592 807.156 398.04 802.042 396.623C793.563 394.274 793.48 369.676 783.749 373.567C779.688 375.191 785.55 392.449 782.287 396.095C779.158 397.519 773.336 396.385 773.116 393.893C772.153 382.993 773.16 362.589 772.697 352.33Z"/><path fill="#1C5C32" transform="scale(0.982726 0.982107)" d="M772.697 352.33C772.351 349.834 771.339 348.384 771.957 346.375C774.637 343.651 781.145 344.354 782.904 348.613C779.556 348.804 774.909 348.011 773.111 349.898L772.697 352.33Z"/><path fill="#17623A" transform="scale(0.982726 0.982107)" d="M275.396 344.977C280.842 344.578 291.886 345.264 294.11 352.312C295.413 356.442 289.413 357.721 286.306 358.379C285.123 351.958 280.184 344.585 273.376 350.157C264.996 357.808 266.437 368.398 267.151 378.78C267.884 389.441 277.641 398.667 285.372 387.048C288.339 382.589 285.98 374.666 282.298 370.304L282.049 369.566C282.958 368.566 283.79 368.177 285.051 367.919C297.916 365.29 298.983 381.274 293.681 389.061C291.095 392.966 287.048 395.668 282.407 396.487C269.08 398.845 257.971 392.298 256.177 378.252C254.195 362.719 257.339 347.541 275.396 344.977Z"/><path fill="#17623A" transform="scale(0.982726 0.982107)" d="M573.199 344.895C575.509 344.848 576.519 345.048 578.133 346.675C580.062 352.46 565.052 371.818 563.488 378.716C562.4 383.515 564.969 393.068 562.564 395.647C549.139 401.889 554.541 384.312 553.022 377.774C552.556 375.767 549.612 370.659 548.491 368.566C544.913 361.296 540.895 354.345 537.491 347.429L537.839 346.428C550.047 339.069 556.249 362.289 559.852 370.718C563.256 361.614 567.786 355.987 569.562 346.579C570.762 345.249 571.18 345.488 573.199 344.895Z"/><path fill="#17623A" transform="scale(0.982726 0.982107)" d="M751.162 349.536C745.79 347.835 740.738 350.027 738.748 355.45C735.619 363.974 735.886 376.247 738.614 384.891C739.427 387.471 741.914 390.924 744.579 391.953C754.827 395.202 754.756 383.413 759.715 381.471C762.797 382.16 766.011 384.018 764.908 387.751C762.173 396.829 748.182 397.916 740.566 396.087C721.566 391.523 720.634 354.862 737.28 347.055C744.577 343.632 751.08 344.375 758.413 346.832C756.721 347.503 752.044 348.86 751.162 349.536Z"/><path fill="#17623A" transform="scale(0.982726 0.982107)" d="M646.799 344.847C649.765 344.883 653.596 345.37 653.789 349.058C654.503 362.643 653.46 376.548 654.236 390.137C658.47 389.764 670.325 386.778 673.095 389.281C674.307 391.706 673.509 393.606 672.77 396.189C665.764 395.763 651.216 396.944 645.556 394.671C642.384 393.398 644.634 362.09 644.208 357.38C643.901 353.988 643.184 350.066 642.978 346.924C643.814 345.702 645.371 345.354 646.799 344.847Z"/><path fill="#17623A" transform="scale(0.982726 0.982107)" d="M596.304 251.296C616.485 250.989 618.009 248.497 615.037 271.038C606.511 271.181 594.059 274.907 595.605 263.146C596.082 259.514 595.105 254.924 596.304 251.296Z"/><path fill="#17623A" transform="scale(0.982726 0.982107)" d="M622.374 251.304C627.307 251.14 632.748 250.981 637.626 251.18C644.151 251.446 641.834 266.766 640.95 271.131C636.182 271.079 630.39 271.499 625.851 271.203C620.064 270.825 621.411 254.655 622.374 251.304Z"/><path fill="#17623A" transform="scale(0.982726 0.982107)" d="M428.347 251.256C433.482 250.899 441.806 251.153 447.175 251.159C447.324 255.75 447.823 266.93 446.806 271.009C437.983 271.151 426.421 274.909 427.817 262.605C428.238 258.898 427.296 255.178 428.347 251.256Z"/><path fill="#17623A" transform="scale(0.982726 0.982107)" d="M402.436 251.25C408.511 251.126 415.277 250.826 421.289 251.244C421.378 255.332 421.863 267.645 420.683 270.923C416.775 270.949 413.036 271.123 409.061 271.437C403.987 271.838 401.521 269.15 401.76 264.075C401.95 260.035 401.491 255.318 402.436 251.25Z"/><path fill="#17623A" transform="scale(0.982726 0.982107)" d="M405.983 225.574C409.099 225.48 418.884 224.574 420.673 226.583C421.635 230.764 422.056 239.863 420.851 243.972C419.647 245.317 420.067 244.919 417.843 245.158C412.517 245.186 407.385 245.219 402.055 245.019C401.745 239.897 400.767 231.428 402.295 226.797C403.649 225.395 403.523 225.827 405.983 225.574Z"/><path fill="#17623A" transform="scale(0.982726 0.982107)" d="M598.755 225.52C601.949 225.512 612.733 224.857 614.656 226.648C616.02 230.035 615.949 239.728 615.131 243.601C614.897 244.706 614.138 244.804 613.218 245.177C609.376 245.207 598.585 245.98 596.335 243.783C595.182 240.181 595.192 230.798 596.336 226.913C596.63 225.914 597.719 225.826 598.755 225.52Z"/><path fill="#17623A" transform="scale(0.982726 0.982107)" d="M622.351 225.774C625.735 225.546 638.624 224.976 641.091 226.524C642.029 228.62 641.719 242.351 640.804 245.157C619.773 245.576 620.606 247.968 622.351 225.774Z"/><path fill="#17623A" transform="scale(0.982726 0.982107)" d="M428.307 225.73C431.756 224.817 442.397 225.285 446.255 226.015C447.552 226.261 447.413 229.677 447.388 230.789C447.294 233.972 447.828 241.454 446.879 244.14C444.263 245.676 431.367 245.719 428.62 244.418C427.329 241.557 427.711 229.027 428.307 225.73Z"/><path fill="#1C5C32" transform="scale(0.982726 0.982107)" d="M428.307 225.73C431.756 224.817 442.397 225.285 446.255 226.015C447.552 226.261 447.413 229.677 447.388 230.789C442.998 231.039 432.954 231.847 429.146 231.017C428.367 230.061 428.399 227.15 428.307 225.73Z"/><defs><linearGradient id="gradient_1" gradientUnits="userSpaceOnUse" x1="753.96155" y1="347.39502" x2="760.81561" y2="356.39078"><stop offset="0" stop-color="#0E4B28"/><stop offset="1" stop-color="#22653F"/></linearGradient></defs><path fill="url(#gradient_1)" transform="scale(0.982726 0.982107)" d="M758.413 346.832C764.404 350.148 765.749 356.864 759.256 359.277C757.271 359.155 757.983 359.421 756.435 358.402C754.777 354.694 754.196 352.287 751.162 349.536C752.044 348.86 756.721 347.503 758.413 346.832Z"/><path fill="#737877" transform="scale(0.982726 0.982107)" d="M390.354 285.667C391.688 286.392 395.182 288.057 395.876 289.127L394.597 288.842L395.908 289.071L395.387 288.507L395.054 289.006C393.241 288.294 391.314 287.589 389.601 286.685L390.354 285.667Z"/></svg>